<svg id="レイヤー_1" data-name="レイヤー 1" xmlns="http://www.w3.org/2000/svg" xmlns:xlink="http://www.w3.org/1999/xlink" viewBox="0 0 306.1 148.63"><defs><style>.cls-1{fill:url(#名称未設定グラデーション_9);}.cls-2{fill:url(#名称未設定グラデーション_9-2);}.cls-3{fill:url(#名称未設定グラデーション_9-3);}.cls-4{fill:url(#名称未設定グラデーション_9-4);}.cls-5{fill:url(#名称未設定グラデーション_9-5);}.cls-6{fill:url(#名称未設定グラデーション_9-6);}.cls-7{fill:url(#名称未設定グラデーション_9-7);}.cls-8{fill:url(#名称未設定グラデーション_9-8);}.cls-9{fill:url(#名称未設定グラデーション_9-9);}.cls-10{fill:url(#名称未設定グラデーション_9-10);}.cls-11{fill:url(#名称未設定グラデーション_9-11);}.cls-12{fill:url(#名称未設定グラデーション_9-12);}.cls-13{fill:url(#名称未設定グラデーション_9-13);}.cls-14{fill:url(#名称未設定グラデーション_9-14);}.cls-15{fill:#303030;}</style><linearGradient id="名称未設定グラデーション_9" x1="43.11" y1="-35.34" x2="184.38" y2="105.92" gradientUnits="userSpaceOnUse"><stop offset="0" stop-color="#f03"/><stop offset="1" stop-color="#ab0000"/></linearGradient><linearGradient id="名称未設定グラデーション_9-2" x1="-33.37" y1="41.13" x2="107.9" y2="182.4" xlink:href="#名称未設定グラデーション_9"/><linearGradient id="名称未設定グラデーション_9-3" x1="-20.71" y1="28.48" x2="120.56" y2="169.74" xlink:href="#名称未設定グラデーション_9"/><linearGradient id="名称未設定グラデーション_9-4" x1="21.94" y1="-14.17" x2="163.21" y2="127.09" xlink:href="#名称未設定グラデーション_9"/><linearGradient id="名称未設定グラデーション_9-5" x1="-37.2" y1="44.97" x2="104.06" y2="186.24" xlink:href="#名称未設定グラデーション_9"/><linearGradient id="名称未設定グラデーション_9-6" x1="-34.23" y1="42" x2="107.04" y2="183.26" xlink:href="#名称未設定グラデーション_9"/><linearGradient id="名称未設定グラデーション_9-7" x1="27.7" y1="-19.93" x2="168.97" y2="121.33" xlink:href="#名称未設定グラデーション_9"/><linearGradient id="名称未設定グラデーション_9-8" x1="61.61" y1="-53.84" x2="202.87" y2="87.43" xlink:href="#名称未設定グラデーション_9"/><linearGradient id="名称未設定グラデーション_9-9" x1="11.65" y1="-3.88" x2="152.92" y2="137.38" xlink:href="#名称未設定グラデーション_9"/><linearGradient id="名称未設定グラデーション_9-10" x1="-8.81" y1="16.58" x2="132.46" y2="157.84" xlink:href="#名称未設定グラデーション_9"/><linearGradient id="名称未設定グラデーション_9-11" x1="45.43" y1="-37.66" x2="186.7" y2="103.6" xlink:href="#名称未設定グラデーション_9"/><linearGradient id="名称未設定グラデーション_9-12" x1="12.79" y1="-5.02" x2="154.05" y2="136.25" xlink:href="#名称未設定グラデーション_9"/><linearGradient id="名称未設定グラデーション_9-13" x1="-4.61" y1="12.38" x2="136.66" y2="153.64" xlink:href="#名称未設定グラデーション_9"/><linearGradient id="名称未設定グラデーション_9-14" x1="43.95" y1="-36.18" x2="185.21" y2="105.09" xlink:href="#名称未設定グラデーション_9"/></defs><title>logo_ngt</title><path class="cls-1" d="M117.93,8.41L50.23,1.08a1.22,1.22,0,1,0-.4,2.41l47.46,15.3,0.16,0.05A35.59,35.59,0,0,0,110,20c3.9-.31,12.61-2.05,11.83-7.73A4.6,4.6,0,0,0,117.93,8.41Z"/><path class="cls-2" d="M54.13,116.54A12.3,12.3,0,0,0,48,110.26L8.5,92a1.56,1.56,0,0,0-1.69,2.57l52.48,47.14a2.77,2.77,0,0,0,4.4-3.17Z"/><circle class="cls-3" cx="57.13" cy="106.31" r="4.91"/><path class="cls-4" d="M40.5,5.5c2.66-1.19,4.42-3.06,3.92-4.16S41-.61,38.29.58s-4,4-3.51,5.07S37.84,6.69,40.5,5.5Z"/><path class="cls-5" d="M4.48,90.34c1.18-.27,1.6-2.8.94-5.64s-2.15-4.92-3.33-4.65-2.57,3-1.91,5.87S3.3,90.61,4.48,90.34Z"/><path class="cls-6" d="M69.49,143.24c-2.91-.19-5.33.64-5.41,1.85s2.15,3.34,5.06,3.53,5.4-1.63,5.48-2.84S72.4,143.43,69.49,143.24Z"/><path class="cls-7" d="M148.64,94.38c-1.15-.37-2.87,1.57-3.75,4.34s-0.61,5.35.54,5.72,3.76-1.28,4.65-4.06S149.79,94.75,148.64,94.38Z"/><path class="cls-8" d="M124.84,10.31c-0.83.88,0.21,3.22,2.33,5.22s4.51,2.92,5.34,2,0.48-3.94-1.64-5.95S125.68,9.43,124.84,10.31Z"/><path class="cls-9" d="M94.62,24.37L49.11,6.68a5.55,5.55,0,0,0-7.49,6.09L55.59,95a2.8,2.8,0,0,0,5.12,1L98.53,36.59A8.25,8.25,0,0,0,94.62,24.37Z"/><path class="cls-10" d="M19.88,93.34L46.07,102a2.89,2.89,0,0,0,3.73-3.16L37.56,12.6a3.2,3.2,0,0,0-6.1-.85L7.38,66C2.45,77.09,7.94,89,19.88,93.34Z"/><path class="cls-11" d="M145,89.14a1.55,1.55,0,0,0,2.92-1c-3.42-16-9.67-44.83-13.38-62.19-1.48-7-10.23-8.84-15.14-3.65a10.81,10.81,0,0,0-1.5,11.13Z"/><path class="cls-12" d="M141.78,90.85L112.62,38.78a3.74,3.74,0,0,0-6.37-.19L65.34,100.93a2.5,2.5,0,0,0,2.23,3.87L136.2,101A6.83,6.83,0,0,0,141.78,90.85Z"/><path class="cls-13" d="M86.1,140.44l54.15-31a2.72,2.72,0,0,0-1.63-5.07l-72.09,7.51a5.3,5.3,0,0,0-4.81,6.74l2.83,12.34C67.07,141.07,77.54,145.33,86.1,140.44Z"/><circle class="cls-14" cx="108.42" cy="28.29" r="4.91"/><path class="cls-15" d="M177.73,94.84V47.6h9l19,28h0.38v-28h10.59V94.84h-9l-19-28.24h-0.42V94.84H177.73Z"/><path class="cls-15" d="M253.34,63.2c-0.48-4-3.43-7.09-8.48-7.09-6,0-9.31,4.36-9.31,12v5.71c0,7.09,2.49,12.46,9.62,12.46,5.4,0,8.51-3.43,8.51-7.41v-2h-8.2v-8h19v9.17c0,9.21-6.26,17.65-19.55,17.65-14.6,0-20.9-9.45-20.9-21.8V68c0-12.56,7.41-21.28,20.94-21.28,12.67,0,19.28,7.86,19.48,16.44H253.34Z"/><path class="cls-15" d="M281.81,94.84V56.94H269V47.6H306.1v9.34H293.23V94.84H281.81Z"/></svg>